# xmcd
#
# Track frame offsets:
#	150
#	5472
#	22147
#	40572
#	55817
#	73860
#	91156
#	111256
#	126156
#	140999
#	158350
#	178101
#	195344
#	213281
#	217923
#	233846
#	249687
#	266492
#	284264
#	297865
#
# Disc length: 4220 seconds
#
# Revision: 0
# Processed by: cddbd v1.5.1PL2 Copyright (c) Steve Scherf et al.
# Submitted via: EasyCDDAExtractor 8.1.2.3
#
DISCID=22107a14
DTITLE=John Gali - Le jour G
DYEAR=2006
DGENRE=Rap
TTITLE0=intro
TTITLE1=g.a.l.i
TTITLE2=dans la peau d'un bonhomme
TTITLE3=hot gal
TTITLE4=1000 hip hop
TTITLE5=la dernière pierre
TTITLE6=la poupee a papa ft pegguy tabu
TTITLE7=made in timal ft maj trafyk
TTITLE8=dancehall night ft jacky brown
TTITLE9=animal sud ft iron sy
TTITLE10=un jour sans
TTITLE11=un peu plus egoiste
TTITLE12=ghetto queen
TTITLE13=interlude
TTITLE14=pas la meme niak ft psykopat
TTITLE15=star attraction ft gen renard
TTITLE16=e.p.o
TTITLE17=tueurs nes ft ste strausz and china moses
TTITLE18=feu
TTITLE19=foulek
EXTD=
EXTT0=
EXTT1=
EXTT2=
EXTT3=
EXTT4=
EXTT5=
EXTT6=
EXTT7=
EXTT8=
EXTT9=
EXTT10=
EXTT11=
EXTT12=
EXTT13=
EXTT14=
EXTT15=
EXTT16=
EXTT17=
EXTT18=
EXTT19=
PLAYORDER=
